<?xml version="1.0" encoding="utf-8"?>
<!-- Generator: Adobe Illustrator 21.1.0, SVG Export Plug-In . SVG Version: 6.00 Build 0)  -->
<svg version="1.1" id="Layer_1" xmlns="http://www.w3.org/2000/svg" xmlns:xlink="http://www.w3.org/1999/xlink" x="0px" y="0px"
	 viewBox="0 0 253.9 59.7" style="enable-background:new 0 0 253.9 59.7;" xml:space="preserve">
<style type="text/css">
	.st0{fill:#FFFFFF;}
</style>
<g>
	<path class="st0" d="M34,44.8l-3.8-11.4H14.6l-3.8,11.4h-7l13.3-40h10.5l13.3,40H34z M16.5,27.6h11.7l-6-18.4L16.5,27.6z"/>
	<path class="st0" d="M45.1,15.3h5.7l0.6,3.8h0.3c1-1.3,1.9-2.5,3.5-3.2c1.3-0.6,2.9-1,4.8-1c0.6,0,1.6,0,2.2,0.3v6.3
		c-0.6,0-1.6-0.3-2.9-0.3s-2.9,0.3-4.1,1c-1.3,0.6-2.5,1.3-3.2,2.5v20h-7L45.1,15.3L45.1,15.3z"/>
	<path class="st0" d="M70.8,56.8c-1.6-0.3-3.2-0.6-4.8-1v-5.7c3.2,1,6,1.3,8.9,1.3c1.9,0,3.8-0.3,5.1-0.6c1.3-0.6,2.2-1.3,2.9-2.5
		c0.6-1.3,1-2.5,1-4.4v-2.2h-0.3c-1,1-1.9,1.9-3.5,2.5c-1.3,0.6-2.9,1-4.4,1c-2.2,0-4.1-0.6-5.7-1.6c-1.6-1-3.2-2.5-4.1-4.8
		c-1-2.2-1.6-4.8-1.6-7.9c0-5.1,1.3-9.2,4.1-11.7c2.9-2.5,6.7-4.1,12.1-4.1c1.9,0,3.5,0,5.4,0.3s3.5,0.6,5.1,1.3v26
		c0,3.5-0.6,6-1.6,8.3c-1,2.2-2.9,3.8-5.1,4.8c-2.2,1-5.1,1.6-8.6,1.6C74,57.2,72.4,57.2,70.8,56.8z M81.3,38.8c1-0.3,1.9-1,2.5-1.9
		V20.7c-1.3-0.3-2.9-0.3-4.1-0.3c-2.9,0-4.8,0.6-6.3,2.2c-1.3,1.6-2.2,4.1-2.2,7.3c0,3.5,0.6,5.7,1.9,7c1.3,1.3,2.9,2.2,5.1,2.2
		C79.4,39.1,80.3,39.1,81.3,38.8z"/>
	<path class="st0" d="M121.9,32.1h-18.1c0,1.9,0.3,3.5,1,4.4c0.6,1.3,1.6,1.9,2.9,2.5c1.3,0.6,3.2,0.6,5.4,0.6s4.8-0.3,7.3-1v5.4
		c-2.9,0.6-5.7,1-8.3,1c-3.5,0-6.3-0.6-8.6-1.6c-2.2-1-3.8-2.9-5.1-5.1c-1.3-2.2-1.6-5.1-1.6-8.6c0-3.2,0.6-6,1.6-8.3
		c1-2.2,2.5-4.1,4.4-5.1c1.9-1.3,4.4-1.6,7-1.6c4.1,0,7,1.3,9.2,3.8s3.2,6.3,3.2,11.4L121.9,32.1L121.9,32.1z M105.1,21.3
		c-1,1.3-1.6,3.5-1.6,6.3h11.7c0-3.2-0.6-5.1-1.6-6.3s-2.2-1.9-4.1-1.9C107.6,19.4,106,20,105.1,21.3z"/>
	<path class="st0" d="M127,15.3h6l0.6,3.2h0.3c1.3-1.3,2.5-1.9,3.8-2.5c1.6-0.6,3.2-1,4.8-1c3.2,0,5.4,1,7.3,2.5
		c1.9,1.9,2.5,4.8,2.5,8.6v18.7h-7V26.4c0-1.9-0.3-3.5-1.3-4.1c-1-1-1.9-1.3-3.5-1.3c-1.3,0-2.2,0.3-3.5,0.6
		c-1.3,0.6-2.2,1.3-2.9,2.2v20.9H127V15.3L127,15.3z"/>
	<path class="st0" d="M176.8,39.1v5.7c-1.6,0.3-3.5,0.6-5.1,0.6c-7,0-10.5-3.5-10.5-10.5V21.3h-5.1v-5.7h5.1l1.3-10.5h5.7v10.5h8.3
		v5.7h-8.3V34c0,1.6,0.3,2.5,0.6,3.5c0.3,1,1,1.6,1.6,1.9c1,0,1.9,0,3.2,0C174.3,39.4,175.5,39.4,176.8,39.1z"/>
	<path class="st0" d="M181.6,9.2c-0.6-0.6-1.3-1.6-1.3-2.9s0.3-2.2,1.3-2.9c0.6-0.6,1.9-1,3.5-1s2.5,0.3,3.5,1
		c0.6,0.6,1.3,1.6,1.3,2.9s-0.3,2.2-1.3,2.9c-0.6,0.6-1.9,1-3.5,1S182.2,9.9,181.6,9.2z M181.2,44.8V15.3h7v29.5H181.2z"/>
	<path class="st0" d="M195.5,15.3h6l0.6,3.2h0.3c1.3-1.3,2.5-1.9,3.8-2.5c1.6-0.6,3.2-1,4.8-1c3.2,0,5.4,1,7.3,2.5
		c1.9,1.9,2.5,4.8,2.5,8.6v18.7h-7V26.4c0-1.9-0.3-3.5-1.3-4.1c-1-1-1.9-1.3-3.5-1.3c-1.3,0-2.2,0.3-3.5,0.6
		c-1.3,0.6-2.2,1.3-2.9,2.2v20.9h-7L195.5,15.3L195.5,15.3z"/>
	<path class="st0" d="M244.7,15.9c1.9,0.6,3.2,1.9,4.1,3.8c1,1.6,1.3,4.1,1.3,7v18.1h-5.7l-0.6-3.2h-0.3c-1,1.3-1.9,1.9-3.5,2.5
		c-1.3,0.6-2.9,1-4.8,1c-1.9,0-3.5-0.3-5.1-1c-1.3-0.6-2.5-1.6-3.2-2.9s-1.3-2.9-1.3-4.4c0-2.9,1-4.8,2.9-6.3
		c1.9-1.6,4.8-2.5,8.9-2.9l5.4-0.6v-1.3c0-1.6-0.3-2.5-0.6-3.5c-0.6-1-1.3-1.6-2.2-1.9c-1-0.3-2.2,0-3.8,0c-1.3,0-2.5,0-3.8,0.3
		c-1.3,0.3-2.9,0.6-4.1,1v-5.4c1.3-0.3,2.9-0.6,4.4-1c1.6-0.3,3.2-0.3,4.8-0.3C240.3,14.9,242.8,15.3,244.7,15.9z M240.6,39.7
		c1-0.3,1.9-1,2.5-1.9v-6.3l-4.8,0.3c-1.9,0.3-3.2,0.6-4.1,1.3s-1.3,1.6-1.3,2.9c0,1.3,0.3,2.2,1.3,2.9c0.6,0.6,1.9,1,3.5,1
		C238.7,40.3,239.6,40,240.6,39.7z"/>
</g>
</svg>
